<svg xmlns="http://www.w3.org/2000/svg" version="1.1" xmlns:xlink="http://www.w3.org/1999/xlink" xmlns:svgjs="http://svgjs.dev/svgjs" width="2000" height="1500" viewBox="0 0 2000 1500"><rect width="2000" height="1500" fill="#ffffff"></rect><g transform="matrix(0.75,0,0,0.75,249.090909090909,282.7536437246963)"><svg viewBox="0 0 396 247" data-background-color="#ffffff" preserveAspectRatio="xMidYMid meet" height="1247" width="2000" xmlns="http://www.w3.org/2000/svg" xmlns:xlink="http://www.w3.org/1999/xlink"><g id="tight-bounds" transform="matrix(1,0,0,1,0.2400000000000091,-0.09999999999999432)"><svg viewBox="0 0 395.52 247.2" height="247.2" width="395.52"><g><svg></svg></g><g><svg viewBox="0 0 395.52 247.2" height="247.2" width="395.52"><g transform="matrix(1,0,0,1,75.54432,85.79035607843137)"><svg viewBox="0 0 244.43135999999998 75.61928784313724" height="75.61928784313724" width="244.43135999999998"><g><svg viewBox="0 0 244.43135999999998 75.61928784313724" height="75.61928784313724" width="244.43135999999998"><g><svg viewBox="0 0 244.43135999999998 75.61928784313724" height="75.61928784313724" width="244.43135999999998"><g><svg viewBox="0 0 244.43135999999998 75.61928784313724" height="75.61928784313724" width="244.43135999999998"><g id="textblocktransform"><svg viewBox="0 0 244.43135999999998 75.61928784313724" height="75.61928784313724" width="244.43135999999998" id="textblock"><g><svg viewBox="0 0 244.43135999999998 75.61928784313724" height="75.61928784313724" width="244.43135999999998"><g transform="matrix(1,0,0,1,0,0)"><svg width="244.43135999999998" viewBox="1.5 -38.7 160.63 49.7" height="75.61928784313724" data-palette-color="#152232"><path d="M14.65 0.55L14.65 0.55Q9.1 0.55 5.3-4.1 1.5-8.75 1.5-15.5L1.5-15.5Q1.5-23.75 6.08-29.4 10.65-35.05 17.3-35.05L17.3-35.05Q19.9-35.05 22.13-34.52 24.35-34 25.3-33.45L25.3-33.45 26.2-32.9 22.8-25.95Q21.65-26.95 19.55-27.83 17.45-28.7 15.75-28.7L15.75-28.7Q12.3-28.7 10.23-25.85 8.15-23 8.15-17.73 8.15-12.45 10.3-9.08 12.45-5.7 16.15-5.7L16.15-5.7Q18.55-5.7 20.5-7.2 22.45-8.7 23.25-11.2L23.25-11.2 27.4-8.8Q25.75-4.4 22.35-1.93 18.95 0.55 14.65 0.55ZM28.95-10.45Q28.95-16.85 32.4-21.3 35.85-25.75 40.47-25.75 45.1-25.75 47.67-22.75 50.25-19.75 50.25-14.8L50.25-14.8Q50.25-8.2 46.92-3.83 43.6 0.55 38.55 0.55L38.55 0.55Q34.4 0.55 31.67-2.58 28.95-5.7 28.95-10.45L28.95-10.45ZM44.65-12.2L44.65-12.2Q44.65-19.45 39.7-19.45L39.7-19.45Q34.55-19.45 34.55-12.65L34.55-12.65Q34.55-9.1 36-7.1 37.45-5.1 39.82-5.1 42.2-5.1 43.42-6.93 44.65-8.75 44.65-12.2ZM67.75-4.9L67.75-4.9Q63.85 0 61 0L61 0Q57.45 0 55.17-2.9 52.9-5.8 52.9-10.35L52.9-10.35Q52.9-16.6 56.37-20.9 59.85-25.2 64.9-25.2L64.9-25.2 67.7-24.8 67.7-25.75 67.09-37.45 73.95-38.7 73.3-13 73.3-8.6Q73.3-5.6 74.8-1.7L74.8-1.7 69.4 0.55Q67.95-2.45 67.75-4.9ZM58.5-12.95Q58.5-9.75 59.67-7.95 60.85-6.15 63.07-6.15 65.3-6.15 67.7-7.95L67.7-7.95 67.7-18.75Q64.7-19.35 63.25-19.35L63.25-19.35Q61-19.35 59.75-17.75 58.5-16.15 58.5-12.95ZM88.64-5.1L88.64-5.1Q90.09-5.1 91.69-5.85 93.29-6.6 94.19-7.35L94.19-7.35 95.09-8.1 97.39-5.3Q96.89-4.45 95.84-3.35 94.79-2.25 93.72-1.48 92.64-0.7 90.87-0.08 89.09 0.55 87.19 0.55L87.19 0.55Q83.14 0.55 80.59-2.53 78.04-5.6 78.04-10.45L78.04-10.45Q78.04-16.55 81.59-21.15 85.14-25.75 89.89-25.75L89.89-25.75Q93.54-25.75 95.57-23.7 97.59-21.65 97.59-17.95L97.59-17.95Q97.59-15.75 96.84-12.95L96.84-12.95 95.84-11.9 83.34-10.75Q84.19-5.1 88.64-5.1ZM88.64-20.6L88.64-20.6Q86.44-20.6 84.94-18.82 83.44-17.05 83.19-14.3L83.19-14.3 91.69-15.35Q91.84-16.5 91.84-17.25L91.84-17.25Q91.84-20.6 88.64-20.6ZM101.94-37.45L108.79-38.7 108.14-13 108.69-1.25 101.94 0 102.54-12.15 101.94-37.45ZM114.59-24.2L121.29-25.45 120.69-13 121.24-1.25 114.54 0 115.14-12.15 114.59-24.2ZM114.24-32.77Q114.24-34.45 115.54-35.77 116.84-37.1 118.54-37.1 120.24-37.1 121.14-36.18 122.04-35.25 122.04-33.4 122.04-31.55 120.76-30.23 119.49-28.9 117.81-28.9 116.14-28.9 115.19-30 114.24-31.1 114.24-32.77ZM141.69-38.25L140.14-32.55Q138.29-33 136.79-33 135.29-33 134.61-32.1 133.94-31.2 133.94-28.95L133.94-28.95 133.89-24.2 139.29-24.2 138.74-20.1 133.89-20.1 133.84-13 134.39-1.25 127.64 0 128.24-12.15 128.04-20.1 124.74-20.1 125.29-24.2 127.94-24.2 127.89-28Q127.89-32.45 130.64-35.58 133.39-38.7 137.34-38.7L137.34-38.7Q139.44-38.7 141.69-38.25L141.69-38.25ZM149.08 11L142.63 9.65 147.78-1.9 144.08-12 139.03-24.15 145.68-25.4 148.88-14.75 150.53-9.7 151.18-9.7 152.38-13.35 155.98-25.45 162.13-24.7 153.28-1.45 149.08 11Z" opacity="1" transform="matrix(1,0,0,1,0,0)" fill="#000000" class="wordmark-text-0" data-fill-palette-color="primary" id="text-0"></path></svg></g></svg></g></svg></g></svg></g></svg></g></svg></g></svg></g><g><path d="M0 123.6c0-68.262 55.338-123.6 123.6-123.6 51.724 0 96.028 31.772 114.459 76.864l-3.694 0c-18.235-43.164-60.963-73.455-110.765-73.454-66.379 0-120.19 53.811-120.19 120.19 0 66.379 53.811 120.19 120.19 120.19 49.803 0 92.531-30.291 110.765-73.454l3.694 0c-18.431 45.092-62.735 76.864-114.459 76.864-68.262 0-123.6-55.338-123.6-123.6z" fill="#000000" stroke="transparent" data-fill-palette-color="tertiary"></path></g></svg></g><defs></defs></svg><rect width="395.52" height="247.2" fill="none" stroke="none" visibility="hidden"></rect></g></svg></g></svg>